<svg id="e3bce5ad-0e3e-4494-8743-9fcae4940936" data-name="Ebene 1" xmlns="http://www.w3.org/2000/svg" viewBox="0 0 363.74079 435.58009"><defs><style>.bdf780ce-2fa2-4acd-930b-b9d96aacdc42{fill:red;}</style></defs><title>favicon</title><path class="bdf780ce-2fa2-4acd-930b-b9d96aacdc42" d="M916.4798,689.67126l-24.57306-24.57545V589.67213a16.21386,16.21386,0,0,0-16.16639-16.16639H850.96828a16.21385,16.21385,0,0,0-16.16638,16.16639v18.31379L765.38256,538.56a21.80365,21.80365,0,0,0-30.76274,0L583.52436,689.67126c-8.48492,8.46469-15.39476,25.165-15.39476,37.12465v26.61785a477.233,477.233,0,0,0,285.62861,94.3449,481.678,481.678,0,0,0,78.11219-6.36042V726.79591C931.8704,714.83629,924.94271,698.136,916.4798,689.67126Z" transform="translate(-568.1296 -532.20996)"/><path class="bdf780ce-2fa2-4acd-930b-b9d96aacdc42" d="M568.1296,802.25559v143.784A21.8219,21.8219,0,0,0,589.8821,967.79H910.12177a21.82263,21.82263,0,0,0,21.74863-21.75041V890.24007a481.678,481.678,0,0,1-78.11219,6.36042A477.233,477.233,0,0,1,568.1296,802.25559Z" transform="translate(-568.1296 -532.20996)"/></svg>