<svg id="a6aa6f62-c4aa-4c95-925b-18789b537560" data-name="Ebene 1" xmlns="http://www.w3.org/2000/svg" viewBox="0 0 742.29877 89.37392"><defs><style>.f68e455e-552b-45c3-b4f4-916af084255c{fill:#fff;}</style></defs><title>Logo Whit</title><path class="f68e455e-552b-45c3-b4f4-916af084255c" d="M496.842,737.62153l-5.042-5.04248V717.10334a3.32682,3.32682,0,0,0-3.31708-3.31708h-5.08282a3.32682,3.32682,0,0,0-3.31708,3.31708V720.861L465.83936,706.616a4.47377,4.47377,0,0,0-6.312,0L428.525,737.62153a12.39183,12.39183,0,0,0-3.15875,7.61737v5.46155a98.52756,98.52756,0,0,0,74.63367,18.053V745.2389A12.41679,12.41679,0,0,0,496.842,737.62153Z" transform="translate(-425.36627 -705.31304)"/><path class="f68e455e-552b-45c3-b4f4-916af084255c" d="M425.36627,760.722v29.50214a4.4775,4.4775,0,0,0,4.46326,4.46283h65.708a4.47765,4.47765,0,0,0,4.46246-4.46283V778.775a98.52756,98.52756,0,0,1-74.63367-18.053Z" transform="translate(-425.36627 -705.31304)"/><path class="f68e455e-552b-45c3-b4f4-916af084255c" d="M551.97168,794.687a62.56067,62.56067,0,0,1-10.69971-.90039,45.87168,45.87168,0,0,1-9.5-2.64942,38.28081,38.28081,0,0,1-7.70019-4.15039l4.5-12.09961a42.32947,42.32947,0,0,0,6.8999,3.64942,41.663,41.663,0,0,0,7.90039,2.40039,43.18413,43.18413,0,0,0,8.59961.84961q7.20044,0,10.40039-2.19922a6.577,6.577,0,0,0,3.19971-5.60059,5.47836,5.47836,0,0,0-1-3.34961,8.01511,8.01511,0,0,0-3.19971-2.35058,26.70864,26.70864,0,0,0-5.80029-1.69922L544.272,764.187q-9.59985-2.10059-14.20019-6.9502-4.60035-4.84863-4.6001-12.75a19.72255,19.72255,0,0,1,3.6001-11.75,23.14524,23.14524,0,0,1,10.05029-7.7998,37.86064,37.86064,0,0,1,14.94971-2.75,47.27009,47.27009,0,0,1,9.30029.90039,36.5434,36.5434,0,0,1,8.34961,2.70019,26.99182,26.99182,0,0,1,6.55029,4.19922l-4.5,11.60059a26.82253,26.82253,0,0,0-9.05029-4.90039,35.77582,35.77582,0,0,0-10.84961-1.59961,20.55546,20.55546,0,0,0-7.15039,1.09961,9.72548,9.72548,0,0,0-4.44971,3.0498,7.40379,7.40379,0,0,0-1.5,4.65039,5.84464,5.84464,0,0,0,2.04981,4.59961q2.04858,1.8003,7.25,2.90039l11.20019,2.39942q9.90015,2.10059,14.75,6.75,4.84936,4.65087,4.8501,12.25a19.17075,19.17075,0,0,1-3.6001,11.5,22.92433,22.92433,0,0,1-10.05029,7.70019A39.33883,39.33883,0,0,1,551.97168,794.687Z" transform="translate(-425.36627 -705.31304)"/><path class="f68e455e-552b-45c3-b4f4-916af084255c" d="M589.771,793.687v-49h14.7998v9.20019h-1.09961a18.21283,18.21283,0,0,1,3.6499-5.5,15.298,15.298,0,0,1,5.44971-3.5498,19.07881,19.07881,0,0,1,7-1.25,15.99511,15.99511,0,0,1,9.5,2.69922,14.66293,14.66293,0,0,1,5.40039,8.20019H633.0708a17.73054,17.73054,0,0,1,6.80029-7.95019,18.85971,18.85971,0,0,1,10.39991-2.94922,17.96769,17.96769,0,0,1,9.2998,2.19922,13.159,13.159,0,0,1,5.5,6.85058,32.52489,32.52489,0,0,1,1.80029,11.64942V793.687H651.771V764.78657q0-4.998-1.5-7.25-1.5-2.25-5.39991-2.25a8.67964,8.67964,0,0,0-4.75,1.30078,8.25477,8.25477,0,0,0-3.1499,3.89941,16.13877,16.13877,0,0,0-1.1001,6.29981V793.687H620.771V764.78657q0-4.998-1.6001-7.25-1.60035-2.25-5.19971-2.25a8.86477,8.86477,0,0,0-4.8501,1.30078,8.25477,8.25477,0,0,0-3.1499,3.89941,16.13877,16.13877,0,0,0-1.1001,6.29981V793.687Z" transform="translate(-425.36627 -705.31304)"/><path class="f68e455e-552b-45c3-b4f4-916af084255c" d="M695.1709,794.687a22.11723,22.11723,0,0,1-9.80078-2.04981,16.50266,16.50266,0,0,1-6.59961-5.60058,14.1997,14.1997,0,0,1-2.3999-8.14942q0-5.40087,2.7998-8.5,2.79858-3.09814,9.04932-4.5a79.20521,79.20521,0,0,1,16.65039-1.40039h5.30078v7.79981h-5.20117a59.9808,59.9808,0,0,0-6.5.30078,15.1877,15.1877,0,0,0-4.39844,1.0498,5.43089,5.43089,0,0,0-2.45117,1.89942,4.9272,4.9272,0,0,0-.75,2.75,5.86552,5.86552,0,0,0,1.95117,4.5,7.88044,7.88044,0,0,0,5.54883,1.80078,10.38516,10.38516,0,0,0,5.20117-1.30078,9.34114,9.34114,0,0,0,3.59961-3.59961,11.01549,11.01549,0,0,0,1.29883-5.5V762.78657q0-4.39893-2-6.25-2.001-1.84863-6.89844-1.84961a32.16145,32.16145,0,0,0-8.35156,1.20019,34.01521,34.01521,0,0,0-8.74952,3.79981l-4.0996-10a29.55407,29.55407,0,0,1,6.25-3.2002,43.21114,43.21114,0,0,1,7.80029-2.14941,43.71249,43.71249,0,0,1,7.75-.75,31.4296,31.4296,0,0,1,12.75,2.25,15.12292,15.12292,0,0,1,7.5,6.94922,25.6335,25.6335,0,0,1,2.44922,11.90039v29H708.77051v-9.79981h.69922a12.37791,12.37791,0,0,1-2.54883,5.7002,13.4146,13.4146,0,0,1-4.90039,3.75A16.32093,16.32093,0,0,1,695.1709,794.687Z" transform="translate(-425.36627 -705.31304)"/><path class="f68e455e-552b-45c3-b4f4-916af084255c" d="M734.26953,793.687v-49h14.79981v11.90039h-1a14.9829,14.9829,0,0,1,5.25-9.2002q4.05029-3.19922,10.85058-3.70019l4.2002-.40039.89941,12.80078-8.39941.7998q-5.70117.501-8.4502,3.29981-2.75244,2.80079-2.75,8.09961V793.687Z" transform="translate(-425.36627 -705.31304)"/><path class="f68e455e-552b-45c3-b4f4-916af084255c" d="M802.56934,794.687q-10.5,0-15.55079-5.04981-5.05077-5.04931-5.0498-14.95019V755.78657H772.669V744.687h9.2998v-14.5h15.10059v14.5h14.39941v11.09961H797.06934v18.30078q0,4.1997,1.89941,6.25,1.89845,2.05078,6.2002,2.0498a16.55024,16.55024,0,0,0,2.70019-.25,31.89814,31.89814,0,0,0,3.29981-.75l2.0996,11a17.53946,17.53946,0,0,1-4.94921,1.7002A28.87817,28.87817,0,0,1,802.56934,794.687Z" transform="translate(-425.36627 -705.31304)"/><path class="f68e455e-552b-45c3-b4f4-916af084255c" d="M847.86719,793.687v-70.5h15.5v28.40039h32.70019V723.187H911.668v70.5H896.06738V764.38715H863.36719V793.687Z" transform="translate(-425.36627 -705.31304)"/><path class="f68e455e-552b-45c3-b4f4-916af084255c" d="M948.06641,794.687a28.659,28.659,0,0,1-13.7002-3.09961,22.22024,22.22024,0,0,1-9.0498-8.85059,30.08045,30.08045,0,0,1,0-27.20019,22.24211,22.24211,0,0,1,9.0498-8.84961,28.67043,28.67043,0,0,1,13.7002-3.09961,28.97861,28.97861,0,0,1,13.75,3.09961,22.18178,22.18178,0,0,1,9.09961,8.84961,30.08045,30.08045,0,0,1,0,27.20019,22.16012,22.16012,0,0,1-9.09961,8.85059A28.967,28.967,0,0,1,948.06641,794.687Zm0-11.2002a9.89249,9.89249,0,0,0,7.89941-3.5q3-3.4995,3-10.89941,0-7.29931-3-10.75a9.95816,9.95816,0,0,0-7.89941-3.4502,9.84879,9.84879,0,0,0-7.80078,3.4502q-3,3.4497-3,10.75,0,7.40038,3,10.89941A9.78493,9.78493,0,0,0,948.06641,783.48676Z" transform="translate(-425.36627 -705.31304)"/><path class="f68e455e-552b-45c3-b4f4-916af084255c" d="M983.46582,793.687v-49h14.79981v9.20019H997.166a18.21142,18.21142,0,0,1,3.64941-5.5,15.30433,15.30433,0,0,1,5.4502-3.5498,19.07881,19.07881,0,0,1,7-1.25,15.99615,15.99615,0,0,1,9.5,2.69922,14.663,14.663,0,0,1,5.40039,8.20019h-1.40039a17.73542,17.73542,0,0,1,6.7998-7.95019,18.86364,18.86364,0,0,1,10.40039-2.94922,17.969,17.969,0,0,1,9.29981,2.19922,13.16132,13.16132,0,0,1,5.5,6.85058,32.52594,32.52594,0,0,1,1.7998,11.64942V793.687h-15.09961V764.78657q0-4.998-1.5-7.25-1.5-2.25-5.40039-2.25a8.682,8.682,0,0,0-4.75,1.30078,8.25387,8.25387,0,0,0-3.14941,3.89941,16.13819,16.13819,0,0,0-1.10059,6.29981V793.687h-15.09961V764.78657q0-4.998-1.59961-7.25-1.60107-2.25-5.20019-2.25a8.86761,8.86761,0,0,0-4.85059,1.30078,8.25387,8.25387,0,0,0-3.14941,3.89941,16.13819,16.13819,0,0,0-1.10059,6.29981V793.687Z" transform="translate(-425.36627 -705.31304)"/><path class="f68e455e-552b-45c3-b4f4-916af084255c" d="M1097.665,794.687a33.3287,33.3287,0,0,1-14.9502-3.09961,22.24646,22.24646,0,0,1-9.59961-8.85059,26.63231,26.63231,0,0,1-3.3496-13.64941,26.09917,26.09917,0,0,1,3.25-13.25,24.02147,24.02147,0,0,1,8.94921-8.9502,25.27476,25.27476,0,0,1,12.90039-3.2998,24.29516,24.29516,0,0,1,12.5,3.0498,20.56943,20.56943,0,0,1,8.04981,8.7002,29.06386,29.06386,0,0,1,2.85059,13.25v3.7998h-36v-7.7998h25.0996l-1.5996,1.39941q0-6.09814-2.6504-9.2998a9.25351,9.25351,0,0,0-7.5498-3.2002,11.25946,11.25946,0,0,0-6.2998,1.7002,10.84222,10.84222,0,0,0-4,4.95019,19.48842,19.48842,0,0,0-1.4004,7.75v.79981a19.78369,19.78369,0,0,0,1.54981,8.40039,9.88723,9.88723,0,0,0,4.75,4.84961,17.76711,17.76711,0,0,0,7.7998,1.5498,28.71919,28.71919,0,0,0,8.10059-1.20019,22.68372,22.68372,0,0,0,7.39941-3.69922l4,10.09961a30.39148,30.39148,0,0,1-9.09961,4.34961A36.45174,36.45174,0,0,1,1097.665,794.687Z" transform="translate(-425.36627 -705.31304)"/><path class="f68e455e-552b-45c3-b4f4-916af084255c" d="M1145.86426,794.687a51.64445,51.64445,0,0,1-8.29981-.65039,40.20462,40.20462,0,0,1-7.2998-1.84961,21.8186,21.8186,0,0,1-5.79981-3.09961l3.59961-9.7002a48.41115,48.41115,0,0,0,5.4502,2.59961,31.78728,31.78728,0,0,0,6.15039,1.79981,34.09068,34.09068,0,0,0,6.2998.60058q4.19971,0,6.2002-1.40039a4.23312,4.23312,0,0,0,2-3.59961,3.3066,3.3066,0,0,0-1.30078-2.85058,9.74933,9.74933,0,0,0-3.79981-1.44922l-10.59961-1.90039a17.66479,17.66479,0,0,1-9.45019-4.59961,11.99887,11.99887,0,0,1-3.34961-8.80078,13.73814,13.73814,0,0,1,2.7998-8.69922,17.81192,17.81192,0,0,1,7.75-5.55078,30.50544,30.50544,0,0,1,11.25-1.94922,40.1845,40.1845,0,0,1,7,.59961,33.545,33.545,0,0,1,6.4502,1.7998,23.14287,23.14287,0,0,1,5.5498,3.10059l-3.90039,9.69922a22.11309,22.11309,0,0,0-4.5-2.5,30.69272,30.69272,0,0,0-5.2998-1.69922,23.13266,23.13266,0,0,0-5-.60059q-4.60107,0-6.65039,1.40039a4.20885,4.20885,0,0,0-2.04981,3.59961,3.787,3.787,0,0,0,1.2002,2.85059,6.673,6.673,0,0,0,3.59961,1.5498l10.60058,1.79981q6.39844,1.1997,9.79981,4.45019a11.54143,11.54143,0,0,1,3.40039,8.75,14.46411,14.46411,0,0,1-2.7002,8.84961,16.63974,16.63974,0,0,1-7.60058,5.54981A31.753,31.753,0,0,1,1145.86426,794.687Z" transform="translate(-425.36627 -705.31304)"/></svg>